<svg width="13" height="17" viewBox="0 0 13 17" fill="none" xmlns="http://www.w3.org/2000/svg">
<path id="Vector" d="M12.5729 5.6825C12.052 6.00141 11.6206 6.44725 11.3189 6.97831C11.0172 7.50938 10.8553 8.10829 10.8481 8.719C10.8502 9.40635 11.0538 10.078 11.4338 10.6508C11.8138 11.2235 12.3535 11.6722 12.986 11.9413C12.7366 12.7459 12.3676 13.5084 11.8912 14.2031C11.2096 15.1843 10.4969 16.1654 9.4125 16.1654C8.3281 16.1654 8.0492 15.5354 6.7995 15.5354C5.5808 15.5354 5.147 16.1861 4.1555 16.1861C3.164 16.1861 2.4721 15.2772 1.6768 14.1618C0.626269 12.5992 0.0489097 10.7667 0.0139999 8.8842C0.0139999 5.7858 2.028 4.1437 4.0109 4.1437C5.0644 4.1437 5.9423 4.8356 6.6033 4.8356C7.2333 4.8356 8.2145 4.1023 9.4125 4.1023C10.0285 4.08641 10.6389 4.22222 11.19 4.49778C11.7411 4.77334 12.216 5.18019 12.5729 5.6825ZM8.8445 2.7907C9.3726 2.16946 9.67155 1.38583 9.6914 0.570702C9.69229 0.463244 9.6819 0.35599 9.6604 0.250702C8.75326 0.339316 7.9144 0.771676 7.3159 1.4591C6.78271 2.05559 6.4725 2.81829 6.438 3.6176C6.4384 3.71481 6.44879 3.81172 6.469 3.9068C6.54051 3.92032 6.61312 3.92725 6.6859 3.9275C7.10397 3.89423 7.51092 3.77631 7.882 3.58088C8.25308 3.38546 8.58055 3.11662 8.8445 2.7907Z" fill="black" fill-opacity="0.8"/>
</svg>
