<svg width="25" height="24" viewBox="0 0 25 24" fill="none" xmlns="http://www.w3.org/2000/svg">
<g id="ri:search-line">
<path id="Vector" d="M18.0622 16.617L22.3452 20.899L20.9302 22.314L16.6482 18.031C15.0549 19.3082 13.0732 20.0029 11.0312 20C6.06318 20 2.03118 15.968 2.03118 11C2.03118 6.032 6.06318 2 11.0312 2C15.9992 2 20.0312 6.032 20.0312 11C20.0341 13.042 19.3394 15.0237 18.0622 16.617ZM16.0562 15.875C17.3253 14.5699 18.034 12.8204 18.0312 11C18.0312 7.132 14.8982 4 11.0312 4C7.16318 4 4.03118 7.132 4.03118 11C4.03118 14.867 7.16318 18 11.0312 18C12.8516 18.0029 14.6011 17.2941 15.9062 16.025L16.0562 15.875Z" fill="#B7B7B7"/>
</g>
</svg>
