<svg width="16" height="15" viewBox="0 0 16 15" fill="none" xmlns="http://www.w3.org/2000/svg">
<path id="Vector" d="M14.798 13.202L10.928 9.332C11.629 8.403 12.05 7.251 12.05 6C12.05 2.94 9.56101 0.449997 6.50001 0.449997C3.44001 0.449997 0.950012 2.94 0.950012 6C0.950012 9.061 3.44001 11.55 6.50001 11.55C7.75101 11.55 8.90301 11.129 9.83201 10.428L13.702 14.298C13.853 14.449 14.052 14.526 14.25 14.526C14.448 14.526 14.646 14.45 14.798 14.298C15.101 13.995 15.101 13.505 14.798 13.202ZM2.05001 6C2.05001 3.546 4.04701 1.55 6.50001 1.55C8.95401 1.55 10.95 3.547 10.95 6C10.95 8.453 8.95401 10.45 6.50001 10.45C4.04601 10.45 2.05001 8.454 2.05001 6Z" fill="black" fill-opacity="0.8"/>
</svg>
