<svg width="13" height="15" viewBox="0 0 13 15" fill="none" xmlns="http://www.w3.org/2000/svg">
<path id="Vector" d="M10.8535 3.02831H9.83303C9.72363 2.21729 9.32728 1.47231 8.71582 0.928401C8.10436 0.384492 7.31827 0.0776551 6.50003 0.0635071C5.68179 0.0776551 4.8957 0.384492 4.28424 0.928401C3.67278 1.47231 3.27643 2.21729 3.16703 3.02831H2.14703C1.58582 3.02868 1.04769 3.25173 0.650776 3.64849C0.253865 4.04525 0.030612 4.5833 0.0300293 5.14451V12.86C0.0305322 13.4212 0.253634 13.9592 0.650375 14.356C1.04712 14.7528 1.58509 14.9761 2.14623 14.9767H10.8532C11.4145 14.9762 11.9526 14.7531 12.3495 14.3562C12.7463 13.9594 12.9695 13.4213 12.97 12.86V5.14451C12.9694 4.58338 12.7463 4.04541 12.3495 3.64867C11.9527 3.25192 11.4147 3.02881 10.8535 3.02831ZM6.50003 1.16311C7.02744 1.17457 7.53515 1.36568 7.93921 1.70483C8.34328 2.04398 8.61951 2.51087 8.72223 3.02831H4.27783C4.38055 2.51087 4.65678 2.04398 5.06085 1.70483C5.46491 1.36568 5.97262 1.17457 6.50003 1.16311ZM11.87 12.86C11.8697 13.1296 11.7626 13.388 11.572 13.5787C11.3814 13.7694 11.123 13.8767 10.8534 13.8771H2.14653C1.87697 13.8767 1.61859 13.7693 1.42804 13.5787C1.23749 13.388 1.13032 13.1296 1.13003 12.86V5.14451C1.13035 4.87499 1.23755 4.61659 1.42814 4.42601C1.61872 4.23543 1.87711 4.12822 2.14663 4.12791H10.8536C11.1231 4.12828 11.3815 4.23551 11.572 4.42608C11.7625 4.61666 11.8697 4.87502 11.87 5.14451V12.86Z" fill="black" fill-opacity="0.8"/>
</svg>
